<?xml version="1.0" encoding="utf-8"?>
<!-- Generator: Adobe Illustrator 16.0.3, SVG Export Plug-In . SVG Version: 6.00 Build 0)  -->
<!DOCTYPE svg PUBLIC "-//W3C//DTD SVG 1.1//EN" "http://www.w3.org/Graphics/SVG/1.1/DTD/svg11.dtd">
<svg fill="#fff" version="1.1" id="Capa_1" xmlns="http://www.w3.org/2000/svg" xmlns:xlink="http://www.w3.org/1999/xlink" x="0px" y="0px"
	 width="380px" height="84.405px" viewBox="0 0 380 84.405" enable-background="new 0 0 380 84.405" xml:space="preserve">
<g>
	<path d="M11.21,16.429h10.861l-0.038,8.089l1.273-3.146c4.769,1.273,8.295,2.703,10.58,4.288c2.285,1.586,4.65,4.176,7.097,7.771
		l0.524,1.498l-0.038-18.426h10.786v42.021c0.174,1.923-0.655,3.963-2.491,6.124c-1.835,2.159-5.599,3.09-11.292,2.79V56.839
		c2.496-0.2,3.545-1.81,3.146-4.831c0.024-1.698-0.344-3.54-1.105-5.524c-0.762-1.985-3.134-4.631-7.116-7.939
		c-3.983-3.308-7.771-5.462-11.367-6.46v35.354H11.135L11.21,16.429z"/>
	<path d="M68.811,16.055l-0.038,51.159H57.5l-0.038-49.437L68.811,16.055z"/>
	<path d="M73.455,16.429h10.861l-0.038,8.089l1.273-3.146c4.769,1.273,8.295,2.703,10.58,4.288c2.285,1.586,4.65,4.176,7.097,7.771
		l0.524,1.498l-0.038-18.426h10.786v42.021c0.174,1.923-0.655,3.963-2.491,6.124c-1.835,2.159-5.599,3.09-11.292,2.79V56.839
		c2.496-0.2,3.545-1.81,3.146-4.831c0.024-1.698-0.344-3.54-1.105-5.524c-0.762-1.985-3.134-4.631-7.116-7.939
		c-3.983-3.308-7.771-5.462-11.367-6.46v35.354H73.38L73.455,16.429z"/>
	<path d="M122.966,16.429h17.603v39.137c-0.125,3.396-0.543,6.335-1.255,8.82c-0.711,2.485-2.778,5.031-6.198,7.641
		c-3.421,2.608-7.902,4.2-13.445,4.774l-0.899-11.235c3.495-0.3,6.242-1.729,8.239-4.288c1.998-2.559,2.821-13.076,2.472-31.553
		l5.094-2.622h-14.157L122.966,16.429z"/>
	<path d="M165.024,12.571l9.213,3.483l-1.086,3.595h14.831l-1.536,11.085l-8.089,0.038l12.846,34.418l-9.925,3.408l-13.183-35.205
		L153.376,68.3l-10.074-3.071l14.531-34.605l-10.599-0.037l0.824-10.936h14.007L165.024,12.571z M169.78,50.772l5.73,6.292
		L164.912,67.7l-5.768-6.217L169.78,50.772z"/>
	<path d="M195.248,16.242l27.789-0.038c3.021,0.749,4.975,2.435,5.861,5.056c0.886,2.622,1.329,4.919,1.329,6.891l-9.813,1.948
		c0-2.347-2.209-3.346-6.629-2.997h-7.715l23.558,23.07c1.747,2.247,1.972,6.03,0.674,11.348c-1.299,3.396-4.507,5.318-9.625,5.767
		l-18.913-0.037c-2.197-0.724-3.933-2.116-5.206-4.176c-1.273-2.06-2.26-4.612-2.959-7.659l10.262-3.483
		c0.274,2.847,1.424,4.22,3.446,4.12l9.999,0.038c1.522-0.349,1.273-1.448-0.749-3.296l-21.909-21.422l5.394-4.27h-6.892
		L195.248,16.242z"/>
	<path d="M244.085,16.055l6.291,30.86c3.046-2.571,4.807-5.224,5.281-7.958c0.474-2.734,0.05-6.597-1.273-11.591h-4.345
		l1.686-11.011l12.921,0.038l6.367,29.625c1.847-1.148,3.208-3.302,4.082-6.46c0.873-3.158,0.661-7.322-0.637-12.49h-4.045
		l1.835-10.711l11.798,0.038c2.271,12.534,2.914,20.86,1.929,24.98c-0.987,4.12-2.186,7.428-3.596,9.924
		c-1.411,2.497-3.527,4.981-6.348,7.453l-2.996-2.06l2.509,11.723l-10.674,3.895l-4.606-21.085c-1.024,3.246-2.635,5.73-4.831,7.453
		l-2.472-1.198l2.097,10.936l-10.037,4.457l-11.834-54.23L244.085,16.055z"/>
	<path d="M289.889,16.616h37.039V27.29l-21.385,0.038v5.955l16.929,0.038l-1.199,10.299h-15.729v13.22l22.021-2.547l3.146,11.311
		l-39.024,4.905l-1.199-11.31l4.42-0.749V43.694h-4.645l1.049-9.625l3.67-0.038l-0.037-4.344l6.029-2.21l-11.085,0.038V16.616z"/>
	<path d="M335.017,16.354h23.37c5.019,0.275,8.064,1.461,9.139,3.558c1.073,2.097,1.51,4.344,1.311,6.741
		c-0.2,2.397-1.985,5.443-5.355,9.138c5.243-0.2,8.164,1.673,8.764,5.618v16.329c-0.275,2.921-1.23,5.188-2.865,6.798
		c-1.636,1.61-3.627,2.69-5.974,3.239c-5.493,1.298-11.186,0.724-17.078-1.723l3.745-9.4c5.293,1.673,8.596,2.079,9.906,1.217
		c1.311-0.861,1.841-5.174,1.592-12.939l-14.157,0.075v9.213c-1.323,9.563-5.842,13.895-13.557,12.996v-9.476
		c2.321,0.025,3.295-1.948,2.921-5.917v-6.479h-2.996l0.037-9.55l3.82,0.075V26.99h-3.97L335.017,16.354z M347.413,26.99v8.389
		l4.832-1.048c3.395-1.822,4.943-4.27,4.644-7.341H347.413z"/>
</g>
</svg>
